<svg width="177" height="73" viewBox="0 0 177 73" fill="none" xmlns="http://www.w3.org/2000/svg">
<path d="M1.584 36C1.416 36 1.296 35.964 1.224 35.892C1.176 35.796 1.2 35.664 1.296 35.496L8.46 23.508C8.508 23.436 8.508 23.364 8.46 23.292L1.296 11.304C1.248 11.16 1.224 11.076 1.224 11.052C1.224 10.884 1.344 10.8 1.584 10.8H5.184C5.448 10.8 5.628 10.896 5.724 11.088L10.98 20.016C11.052 20.16 11.124 20.16 11.196 20.016L16.488 11.088C16.584 10.896 16.752 10.8 16.992 10.8H20.592C20.76 10.8 20.868 10.848 20.916 10.944C20.988 11.016 20.976 11.136 20.88 11.304L13.716 23.292C13.692 23.364 13.692 23.436 13.716 23.508L20.88 35.496C20.928 35.64 20.952 35.724 20.952 35.748C20.952 35.916 20.832 36 20.592 36H16.992C16.752 36 16.584 35.904 16.488 35.712L11.196 26.82C11.124 26.676 11.052 26.676 10.98 26.82L5.688 35.712C5.592 35.904 5.424 36 5.184 36H1.584ZM41.3716 10.8C41.4916 10.8 41.5876 10.848 41.6596 10.944C41.7556 11.016 41.8036 11.112 41.8036 11.232V14.004C41.8036 14.124 41.7556 14.232 41.6596 14.328C41.5876 14.4 41.4916 14.436 41.3716 14.436H34.7476C34.6276 14.436 34.5676 14.496 34.5676 14.616V35.568C34.5676 35.688 34.5196 35.796 34.4236 35.892C34.3516 35.964 34.2556 36 34.1356 36H30.8236C30.7036 36 30.5956 35.964 30.4996 35.892C30.4276 35.796 30.3916 35.688 30.3916 35.568V14.616C30.3916 14.496 30.3316 14.436 30.2116 14.436H23.8396C23.7196 14.436 23.6116 14.4 23.5156 14.328C23.4436 14.232 23.4076 14.124 23.4076 14.004V11.232C23.4076 11.112 23.4436 11.016 23.5156 10.944C23.6116 10.848 23.7196 10.8 23.8396 10.8H41.3716ZM59.8073 36C59.5673 36 59.3993 35.892 59.3033 35.676L54.5513 25.308C54.5033 25.212 54.4313 25.164 54.3353 25.164H50.0153C49.8953 25.164 49.8353 25.224 49.8353 25.344V35.568C49.8353 35.688 49.7873 35.796 49.6913 35.892C49.6193 35.964 49.5233 36 49.4033 36H46.0913C45.9713 36 45.8633 35.964 45.7673 35.892C45.6953 35.796 45.6593 35.688 45.6593 35.568V11.232C45.6593 11.112 45.6953 11.016 45.7673 10.944C45.8633 10.848 45.9713 10.8 46.0913 10.8H55.9913C57.4553 10.8 58.7513 11.112 59.8793 11.736C61.0073 12.336 61.8833 13.2 62.5073 14.328C63.1313 15.432 63.4433 16.704 63.4433 18.144C63.4433 19.8 63.0113 21.216 62.1473 22.392C61.3073 23.544 60.1313 24.348 58.6193 24.804C58.5713 24.804 58.5353 24.828 58.5113 24.876C58.4873 24.924 58.4873 24.972 58.5113 25.02L63.5873 35.496C63.6353 35.592 63.6593 35.664 63.6593 35.712C63.6593 35.904 63.5273 36 63.2633 36H59.8073ZM50.0153 14.4C49.8953 14.4 49.8353 14.46 49.8353 14.58V21.744C49.8353 21.864 49.8953 21.924 50.0153 21.924H55.4153C56.5673 21.924 57.4913 21.588 58.1873 20.916C58.9073 20.22 59.2673 19.308 59.2673 18.18C59.2673 17.052 58.9073 16.14 58.1873 15.444C57.4913 14.748 56.5673 14.4 55.4153 14.4H50.0153ZM84.8014 13.968C84.8014 14.088 84.7534 14.196 84.6574 14.292C84.5854 14.364 84.4894 14.4 84.3694 14.4H72.0934C71.9734 14.4 71.9134 14.46 71.9134 14.58V21.312C71.9134 21.432 71.9734 21.492 72.0934 21.492H80.3374C80.4574 21.492 80.5534 21.54 80.6254 21.636C80.7214 21.708 80.7694 21.804 80.7694 21.924V24.66C80.7694 24.78 80.7214 24.888 80.6254 24.984C80.5534 25.056 80.4574 25.092 80.3374 25.092H72.0934C71.9734 25.092 71.9134 25.152 71.9134 25.272V32.22C71.9134 32.34 71.9734 32.4 72.0934 32.4H84.3694C84.4894 32.4 84.5854 32.448 84.6574 32.544C84.7534 32.616 84.8014 32.712 84.8014 32.832V35.568C84.8014 35.688 84.7534 35.796 84.6574 35.892C84.5854 35.964 84.4894 36 84.3694 36H68.1694C68.0494 36 67.9414 35.964 67.8454 35.892C67.7734 35.796 67.7374 35.688 67.7374 35.568V11.232C67.7374 11.112 67.7734 11.016 67.8454 10.944C67.9414 10.848 68.0494 10.8 68.1694 10.8H84.3694C84.4894 10.8 84.5854 10.848 84.6574 10.944C84.7534 11.016 84.8014 11.112 84.8014 11.232V13.968ZM105.278 11.088C105.398 10.896 105.566 10.8 105.782 10.8H109.094C109.214 10.8 109.31 10.848 109.382 10.944C109.478 11.016 109.526 11.112 109.526 11.232V35.568C109.526 35.688 109.478 35.796 109.382 35.892C109.31 35.964 109.214 36 109.094 36H105.782C105.662 36 105.554 35.964 105.458 35.892C105.386 35.796 105.35 35.688 105.35 35.568V18.396C105.35 18.324 105.314 18.276 105.242 18.252C105.194 18.228 105.158 18.252 105.134 18.324L100.634 25.236C100.514 25.428 100.346 25.524 100.13 25.524H98.4741C98.2581 25.524 98.0901 25.428 97.9701 25.236L93.4341 18.36C93.4101 18.288 93.3621 18.264 93.2901 18.288C93.2421 18.312 93.2181 18.36 93.2181 18.432V35.568C93.2181 35.688 93.1701 35.796 93.0741 35.892C93.0021 35.964 92.9061 36 92.7861 36H89.4741C89.3541 36 89.2461 35.964 89.1501 35.892C89.0781 35.796 89.0421 35.688 89.0421 35.568V11.232C89.0421 11.112 89.0781 11.016 89.1501 10.944C89.2461 10.848 89.3541 10.8 89.4741 10.8H92.7861C93.0021 10.8 93.1701 10.896 93.2901 11.088L99.1581 19.98C99.2061 20.028 99.2541 20.052 99.3021 20.052C99.3501 20.052 99.3861 20.028 99.4101 19.98L105.278 11.088ZM131.84 13.968C131.84 14.088 131.792 14.196 131.696 14.292C131.624 14.364 131.528 14.4 131.408 14.4H119.132C119.012 14.4 118.952 14.46 118.952 14.58V21.312C118.952 21.432 119.012 21.492 119.132 21.492H127.376C127.496 21.492 127.592 21.54 127.664 21.636C127.76 21.708 127.808 21.804 127.808 21.924V24.66C127.808 24.78 127.76 24.888 127.664 24.984C127.592 25.056 127.496 25.092 127.376 25.092H119.132C119.012 25.092 118.952 25.152 118.952 25.272V32.22C118.952 32.34 119.012 32.4 119.132 32.4H131.408C131.528 32.4 131.624 32.448 131.696 32.544C131.792 32.616 131.84 32.712 131.84 32.832V35.568C131.84 35.688 131.792 35.796 131.696 35.892C131.624 35.964 131.528 36 131.408 36H115.208C115.088 36 114.98 35.964 114.884 35.892C114.812 35.796 114.776 35.688 114.776 35.568V11.232C114.776 11.112 114.812 11.016 114.884 10.944C114.98 10.848 115.088 10.8 115.208 10.8H131.408C131.528 10.8 131.624 10.848 131.696 10.944C131.792 11.016 131.84 11.112 131.84 11.232V13.968Z" fill="#9F6808"/>
<path d="M105.864 41.088C105.984 40.896 106.152 40.8 106.368 40.8H109.68C109.8 40.8 109.896 40.848 109.968 40.944C110.064 41.016 110.112 41.112 110.112 41.232V65.568C110.112 65.688 110.064 65.796 109.968 65.892C109.896 65.964 109.8 66 109.68 66H106.368C106.248 66 106.14 65.964 106.044 65.892C105.972 65.796 105.936 65.688 105.936 65.568V48.396C105.936 48.324 105.9 48.276 105.828 48.252C105.78 48.228 105.744 48.252 105.72 48.324L101.22 55.236C101.1 55.428 100.932 55.524 100.716 55.524H99.06C98.844 55.524 98.676 55.428 98.556 55.236L94.02 48.36C93.996 48.288 93.948 48.264 93.876 48.288C93.828 48.312 93.804 48.36 93.804 48.432V65.568C93.804 65.688 93.756 65.796 93.66 65.892C93.588 65.964 93.492 66 93.372 66H90.06C89.94 66 89.832 65.964 89.736 65.892C89.664 65.796 89.628 65.688 89.628 65.568V41.232C89.628 41.112 89.664 41.016 89.736 40.944C89.832 40.848 89.94 40.8 90.06 40.8H93.372C93.588 40.8 93.756 40.896 93.876 41.088L99.744 49.98C99.792 50.028 99.84 50.052 99.888 50.052C99.936 50.052 99.972 50.028 99.996 49.98L105.864 41.088ZM123.894 66.36C122.094 66.36 120.498 66 119.106 65.28C117.714 64.536 116.634 63.492 115.866 62.148C115.122 60.804 114.75 59.256 114.75 57.504V49.296C114.75 47.568 115.134 46.044 115.902 44.724C116.67 43.38 117.738 42.348 119.106 41.628C120.498 40.884 122.094 40.512 123.894 40.512C125.718 40.512 127.314 40.884 128.682 41.628C130.074 42.348 131.154 43.38 131.922 44.724C132.69 46.044 133.074 47.568 133.074 49.296V57.504C133.074 59.256 132.69 60.804 131.922 62.148C131.154 63.492 130.074 64.536 128.682 65.28C127.314 66 125.718 66.36 123.894 66.36ZM123.894 62.76C125.406 62.76 126.618 62.292 127.53 61.356C128.442 60.42 128.898 59.184 128.898 57.648V49.26C128.898 47.7 128.442 46.452 127.53 45.516C126.618 44.58 125.406 44.112 123.894 44.112C122.406 44.112 121.206 44.58 120.294 45.516C119.382 46.452 118.926 47.7 118.926 49.26V57.648C118.926 59.184 119.382 60.42 120.294 61.356C121.206 62.292 122.406 62.76 123.894 62.76ZM154.001 40.8C154.121 40.8 154.217 40.848 154.289 40.944C154.385 41.016 154.433 41.112 154.433 41.232V44.004C154.433 44.124 154.385 44.232 154.289 44.328C154.217 44.4 154.121 44.436 154.001 44.436H147.377C147.257 44.436 147.197 44.496 147.197 44.616V65.568C147.197 65.688 147.149 65.796 147.053 65.892C146.981 65.964 146.885 66 146.765 66H143.453C143.333 66 143.225 65.964 143.129 65.892C143.057 65.796 143.021 65.688 143.021 65.568V44.616C143.021 44.496 142.961 44.436 142.841 44.436H136.469C136.349 44.436 136.241 44.4 136.145 44.328C136.073 44.232 136.037 44.124 136.037 44.004V41.232C136.037 41.112 136.073 41.016 136.145 40.944C136.241 40.848 136.349 40.8 136.469 40.8H154.001ZM165.555 66.36C163.755 66.36 162.159 66 160.767 65.28C159.375 64.536 158.295 63.492 157.527 62.148C156.783 60.804 156.411 59.256 156.411 57.504V49.296C156.411 47.568 156.795 46.044 157.563 44.724C158.331 43.38 159.399 42.348 160.767 41.628C162.159 40.884 163.755 40.512 165.555 40.512C167.379 40.512 168.975 40.884 170.343 41.628C171.735 42.348 172.815 43.38 173.583 44.724C174.351 46.044 174.735 47.568 174.735 49.296V57.504C174.735 59.256 174.351 60.804 173.583 62.148C172.815 63.492 171.735 64.536 170.343 65.28C168.975 66 167.379 66.36 165.555 66.36ZM165.555 62.76C167.067 62.76 168.279 62.292 169.191 61.356C170.103 60.42 170.559 59.184 170.559 57.648V49.26C170.559 47.7 170.103 46.452 169.191 45.516C168.279 44.58 167.067 44.112 165.555 44.112C164.067 44.112 162.867 44.58 161.955 45.516C161.043 46.452 160.587 47.7 160.587 49.26V57.648C160.587 59.184 161.043 60.42 161.955 61.356C162.867 62.292 164.067 62.76 165.555 62.76Z" fill="#9F6808"/>
</svg>
