<svg width="198" height="73" viewBox="0 0 198 73" fill="none" xmlns="http://www.w3.org/2000/svg">
<path d="M19.692 13.968C19.692 14.088 19.644 14.196 19.548 14.292C19.476 14.364 19.38 14.4 19.26 14.4H6.984C6.864 14.4 6.804 14.46 6.804 14.58V21.312C6.804 21.432 6.864 21.492 6.984 21.492H15.228C15.348 21.492 15.444 21.54 15.516 21.636C15.612 21.708 15.66 21.804 15.66 21.924V24.66C15.66 24.78 15.612 24.888 15.516 24.984C15.444 25.056 15.348 25.092 15.228 25.092H6.984C6.864 25.092 6.804 25.152 6.804 25.272V32.22C6.804 32.34 6.864 32.4 6.984 32.4H19.26C19.38 32.4 19.476 32.448 19.548 32.544C19.644 32.616 19.692 32.712 19.692 32.832V35.568C19.692 35.688 19.644 35.796 19.548 35.892C19.476 35.964 19.38 36 19.26 36H3.06C2.94 36 2.832 35.964 2.736 35.892C2.664 35.796 2.628 35.688 2.628 35.568V11.232C2.628 11.112 2.664 11.016 2.736 10.944C2.832 10.848 2.94 10.8 3.06 10.8H19.26C19.38 10.8 19.476 10.848 19.548 10.944C19.644 11.016 19.692 11.112 19.692 11.232V13.968ZM22.8887 36C22.7207 36 22.6007 35.964 22.5287 35.892C22.4807 35.796 22.5047 35.664 22.6007 35.496L29.7647 23.508C29.8127 23.436 29.8127 23.364 29.7647 23.292L22.6007 11.304C22.5527 11.16 22.5287 11.076 22.5287 11.052C22.5287 10.884 22.6487 10.8 22.8887 10.8H26.4887C26.7527 10.8 26.9327 10.896 27.0287 11.088L32.2847 20.016C32.3567 20.16 32.4287 20.16 32.5007 20.016L37.7927 11.088C37.8887 10.896 38.0567 10.8 38.2967 10.8H41.8967C42.0647 10.8 42.1727 10.848 42.2207 10.944C42.2927 11.016 42.2807 11.136 42.1847 11.304L35.0207 23.292C34.9967 23.364 34.9967 23.436 35.0207 23.508L42.1847 35.496C42.2327 35.64 42.2567 35.724 42.2567 35.748C42.2567 35.916 42.1367 36 41.8967 36H38.2967C38.0567 36 37.8887 35.904 37.7927 35.712L32.5007 26.82C32.4287 26.676 32.3567 26.676 32.2847 26.82L26.9927 35.712C26.8967 35.904 26.7287 36 26.4887 36H22.8887ZM62.6763 10.8C62.7963 10.8 62.8923 10.848 62.9643 10.944C63.0603 11.016 63.1083 11.112 63.1083 11.232V14.004C63.1083 14.124 63.0603 14.232 62.9643 14.328C62.8923 14.4 62.7963 14.436 62.6763 14.436H56.0523C55.9323 14.436 55.8723 14.496 55.8723 14.616V35.568C55.8723 35.688 55.8243 35.796 55.7283 35.892C55.6563 35.964 55.5603 36 55.4403 36H52.1283C52.0083 36 51.9003 35.964 51.8043 35.892C51.7323 35.796 51.6963 35.688 51.6963 35.568V14.616C51.6963 14.496 51.6363 14.436 51.5163 14.436H45.1443C45.0243 14.436 44.9163 14.4 44.8203 14.328C44.7483 14.232 44.7123 14.124 44.7123 14.004V11.232C44.7123 11.112 44.7483 11.016 44.8203 10.944C44.9163 10.848 45.0243 10.8 45.1443 10.8H62.6763ZM81.1119 36C80.8719 36 80.7039 35.892 80.6079 35.676L75.8559 25.308C75.8079 25.212 75.7359 25.164 75.6399 25.164H71.3199C71.1999 25.164 71.1399 25.224 71.1399 25.344V35.568C71.1399 35.688 71.0919 35.796 70.9959 35.892C70.9239 35.964 70.8279 36 70.7079 36H67.3959C67.2759 36 67.1679 35.964 67.0719 35.892C66.9999 35.796 66.9639 35.688 66.9639 35.568V11.232C66.9639 11.112 66.9999 11.016 67.0719 10.944C67.1679 10.848 67.2759 10.8 67.3959 10.8H77.2959C78.7599 10.8 80.0559 11.112 81.1839 11.736C82.3119 12.336 83.1879 13.2 83.8119 14.328C84.4359 15.432 84.7479 16.704 84.7479 18.144C84.7479 19.8 84.3159 21.216 83.4519 22.392C82.6119 23.544 81.4359 24.348 79.9239 24.804C79.8759 24.804 79.8399 24.828 79.8159 24.876C79.7919 24.924 79.7919 24.972 79.8159 25.02L84.8919 35.496C84.9399 35.592 84.9639 35.664 84.9639 35.712C84.9639 35.904 84.8319 36 84.5679 36H81.1119ZM71.3199 14.4C71.1999 14.4 71.1399 14.46 71.1399 14.58V21.744C71.1399 21.864 71.1999 21.924 71.3199 21.924H76.7199C77.8719 21.924 78.7959 21.588 79.4919 20.916C80.2119 20.22 80.5719 19.308 80.5719 18.18C80.5719 17.052 80.2119 16.14 79.4919 15.444C78.7959 14.748 77.8719 14.4 76.7199 14.4H71.3199ZM106.106 13.968C106.106 14.088 106.058 14.196 105.962 14.292C105.89 14.364 105.794 14.4 105.674 14.4H93.3981C93.2781 14.4 93.2181 14.46 93.2181 14.58V21.312C93.2181 21.432 93.2781 21.492 93.3981 21.492H101.642C101.762 21.492 101.858 21.54 101.93 21.636C102.026 21.708 102.074 21.804 102.074 21.924V24.66C102.074 24.78 102.026 24.888 101.93 24.984C101.858 25.056 101.762 25.092 101.642 25.092H93.3981C93.2781 25.092 93.2181 25.152 93.2181 25.272V32.22C93.2181 32.34 93.2781 32.4 93.3981 32.4H105.674C105.794 32.4 105.89 32.448 105.962 32.544C106.058 32.616 106.106 32.712 106.106 32.832V35.568C106.106 35.688 106.058 35.796 105.962 35.892C105.89 35.964 105.794 36 105.674 36H89.4741C89.3541 36 89.2461 35.964 89.1501 35.892C89.0781 35.796 89.0421 35.688 89.0421 35.568V11.232C89.0421 11.112 89.0781 11.016 89.1501 10.944C89.2461 10.848 89.3541 10.8 89.4741 10.8H105.674C105.794 10.8 105.89 10.848 105.962 10.944C106.058 11.016 106.106 11.112 106.106 11.232V13.968ZM126.583 11.088C126.703 10.896 126.871 10.8 127.087 10.8H130.399C130.519 10.8 130.615 10.848 130.687 10.944C130.783 11.016 130.831 11.112 130.831 11.232V35.568C130.831 35.688 130.783 35.796 130.687 35.892C130.615 35.964 130.519 36 130.399 36H127.087C126.967 36 126.859 35.964 126.763 35.892C126.691 35.796 126.655 35.688 126.655 35.568V18.396C126.655 18.324 126.619 18.276 126.547 18.252C126.499 18.228 126.463 18.252 126.439 18.324L121.939 25.236C121.819 25.428 121.651 25.524 121.435 25.524H119.779C119.563 25.524 119.395 25.428 119.275 25.236L114.739 18.36C114.715 18.288 114.667 18.264 114.595 18.288C114.547 18.312 114.523 18.36 114.523 18.432V35.568C114.523 35.688 114.475 35.796 114.379 35.892C114.307 35.964 114.211 36 114.091 36H110.779C110.659 36 110.551 35.964 110.455 35.892C110.383 35.796 110.347 35.688 110.347 35.568V11.232C110.347 11.112 110.383 11.016 110.455 10.944C110.551 10.848 110.659 10.8 110.779 10.8H114.091C114.307 10.8 114.475 10.896 114.595 11.088L120.463 19.98C120.511 20.028 120.559 20.052 120.607 20.052C120.655 20.052 120.691 20.028 120.715 19.98L126.583 11.088Z" fill="#FF0000"/>
<path d="M126.864 41.088C126.984 40.896 127.152 40.8 127.368 40.8H130.68C130.8 40.8 130.896 40.848 130.968 40.944C131.064 41.016 131.112 41.112 131.112 41.232V65.568C131.112 65.688 131.064 65.796 130.968 65.892C130.896 65.964 130.8 66 130.68 66H127.368C127.248 66 127.14 65.964 127.044 65.892C126.972 65.796 126.936 65.688 126.936 65.568V48.396C126.936 48.324 126.9 48.276 126.828 48.252C126.78 48.228 126.744 48.252 126.72 48.324L122.22 55.236C122.1 55.428 121.932 55.524 121.716 55.524H120.06C119.844 55.524 119.676 55.428 119.556 55.236L115.02 48.36C114.996 48.288 114.948 48.264 114.876 48.288C114.828 48.312 114.804 48.36 114.804 48.432V65.568C114.804 65.688 114.756 65.796 114.66 65.892C114.588 65.964 114.492 66 114.372 66H111.06C110.94 66 110.832 65.964 110.736 65.892C110.664 65.796 110.628 65.688 110.628 65.568V41.232C110.628 41.112 110.664 41.016 110.736 40.944C110.832 40.848 110.94 40.8 111.06 40.8H114.372C114.588 40.8 114.756 40.896 114.876 41.088L120.744 49.98C120.792 50.028 120.84 50.052 120.888 50.052C120.936 50.052 120.972 50.028 120.996 49.98L126.864 41.088ZM144.894 66.36C143.094 66.36 141.498 66 140.106 65.28C138.714 64.536 137.634 63.492 136.866 62.148C136.122 60.804 135.75 59.256 135.75 57.504V49.296C135.75 47.568 136.134 46.044 136.902 44.724C137.67 43.38 138.738 42.348 140.106 41.628C141.498 40.884 143.094 40.512 144.894 40.512C146.718 40.512 148.314 40.884 149.682 41.628C151.074 42.348 152.154 43.38 152.922 44.724C153.69 46.044 154.074 47.568 154.074 49.296V57.504C154.074 59.256 153.69 60.804 152.922 62.148C152.154 63.492 151.074 64.536 149.682 65.28C148.314 66 146.718 66.36 144.894 66.36ZM144.894 62.76C146.406 62.76 147.618 62.292 148.53 61.356C149.442 60.42 149.898 59.184 149.898 57.648V49.26C149.898 47.7 149.442 46.452 148.53 45.516C147.618 44.58 146.406 44.112 144.894 44.112C143.406 44.112 142.206 44.58 141.294 45.516C140.382 46.452 139.926 47.7 139.926 49.26V57.648C139.926 59.184 140.382 60.42 141.294 61.356C142.206 62.292 143.406 62.76 144.894 62.76ZM175.001 40.8C175.121 40.8 175.217 40.848 175.289 40.944C175.385 41.016 175.433 41.112 175.433 41.232V44.004C175.433 44.124 175.385 44.232 175.289 44.328C175.217 44.4 175.121 44.436 175.001 44.436H168.377C168.257 44.436 168.197 44.496 168.197 44.616V65.568C168.197 65.688 168.149 65.796 168.053 65.892C167.981 65.964 167.885 66 167.765 66H164.453C164.333 66 164.225 65.964 164.129 65.892C164.057 65.796 164.021 65.688 164.021 65.568V44.616C164.021 44.496 163.961 44.436 163.841 44.436H157.469C157.349 44.436 157.241 44.4 157.145 44.328C157.073 44.232 157.037 44.124 157.037 44.004V41.232C157.037 41.112 157.073 41.016 157.145 40.944C157.241 40.848 157.349 40.8 157.469 40.8H175.001ZM186.555 66.36C184.755 66.36 183.159 66 181.767 65.28C180.375 64.536 179.295 63.492 178.527 62.148C177.783 60.804 177.411 59.256 177.411 57.504V49.296C177.411 47.568 177.795 46.044 178.563 44.724C179.331 43.38 180.399 42.348 181.767 41.628C183.159 40.884 184.755 40.512 186.555 40.512C188.379 40.512 189.975 40.884 191.343 41.628C192.735 42.348 193.815 43.38 194.583 44.724C195.351 46.044 195.735 47.568 195.735 49.296V57.504C195.735 59.256 195.351 60.804 194.583 62.148C193.815 63.492 192.735 64.536 191.343 65.28C189.975 66 188.379 66.36 186.555 66.36ZM186.555 62.76C188.067 62.76 189.279 62.292 190.191 61.356C191.103 60.42 191.559 59.184 191.559 57.648V49.26C191.559 47.7 191.103 46.452 190.191 45.516C189.279 44.58 188.067 44.112 186.555 44.112C185.067 44.112 183.867 44.58 182.955 45.516C182.043 46.452 181.587 47.7 181.587 49.26V57.648C181.587 59.184 182.043 60.42 182.955 61.356C183.867 62.292 185.067 62.76 186.555 62.76Z" fill="#FF0000"/>
</svg>
