<svg width="23" height="23" viewBox="0 0 23 23" fill="none" xmlns="http://www.w3.org/2000/svg">
<path d="M11.6154 22.2308C17.4783 22.2308 22.2308 17.4783 22.2308 11.6154C22.2308 5.75251 17.4783 1 11.6154 1C5.75251 1 1 5.75251 1 11.6154C1 17.4783 5.75251 22.2308 11.6154 22.2308Z" stroke="black" stroke-linecap="round" stroke-linejoin="round"/>
<path d="M7.36935 2.06152H8.43089C6.36093 8.26257 6.36093 14.9682 8.43089 21.1692H7.36935M14.8001 2.06152C16.8701 8.26257 16.8701 14.9682 14.8001 21.1692" stroke="black" stroke-linecap="round" stroke-linejoin="round"/>
<path d="M2.06152 15.8615V14.8C8.26257 16.87 14.9682 16.87 21.1692 14.8V15.8615M2.06152 8.43077C8.26257 6.3608 14.9682 6.3608 21.1692 8.43077" stroke="black" stroke-linecap="round" stroke-linejoin="round"/>
</svg>
